<mxfile host="app.diagrams.net" agent="Mozilla/5.0 (Macintosh; Intel Mac OS X 10_15_7) AppleWebKit/537.36 (KHTML, like Gecko) Chrome/135.0.0.0 Safari/537.36" version="26.2.14">
  <diagram name="Page-1" id="SIwTSqNobDbba20LEAqv">
    <mxGraphModel dx="1112" dy="447" grid="1" gridSize="10" guides="1" tooltips="1" connect="1" arrows="1" fold="1" page="1" pageScale="1" pageWidth="850" pageHeight="1100" math="0" shadow="0">
      <root>
        <mxCell id="0" />
        <mxCell id="1" parent="0" />
        <mxCell id="Gt8K0VjSj40tpMnUnVSi-1" value="" style="verticalLabelPosition=bottom;html=1;verticalAlign=top;align=center;strokeColor=none;fillColor=#00BEF2;shape=mxgraph.azure.user;fontColor=light-dark(#ffffff, #ededed);fontFamily=Times New Roman;" vertex="1" parent="1">
          <mxGeometry x="80" y="620" width="47.5" height="50" as="geometry" />
        </mxCell>
        <mxCell id="Gt8K0VjSj40tpMnUnVSi-2" value="" style="rounded=0;whiteSpace=wrap;html=1;fillColor=#60a917;fontColor=light-dark(#ffffff, #ededed);strokeColor=#2D7600;fontFamily=Times New Roman;" vertex="1" parent="1">
          <mxGeometry x="180" y="565" width="310" height="165" as="geometry" />
        </mxCell>
        <mxCell id="Gt8K0VjSj40tpMnUnVSi-3" value="Products" style="text;html=1;align=center;verticalAlign=middle;whiteSpace=wrap;rounded=0;fontColor=light-dark(#ffffff, #ededed);fontFamily=Times New Roman;" vertex="1" parent="1">
          <mxGeometry x="180" y="710" width="60" height="20" as="geometry" />
        </mxCell>
        <mxCell id="Gt8K0VjSj40tpMnUnVSi-4" value="Support guidance upload" style="rounded=1;whiteSpace=wrap;html=1;fillColor=#d5e8d4;strokeColor=#82b366;gradientColor=#97d077;fontColor=light-dark(#ffffff, #ededed);fontFamily=Times New Roman;" vertex="1" parent="1">
          <mxGeometry x="190" y="570" width="140" height="40" as="geometry" />
        </mxCell>
      </root>
    </mxGraphModel>
  </diagram>
</mxfile>
